<?xml version="1.0" encoding="UTF-8" standalone="no"?>
<!-- Created with Inkscape (http://www.inkscape.org/) -->

<svg xmlns:dc="http://purl.org/dc/elements/1.1/" xmlns:cc="http://creativecommons.org/ns#" xmlns:rdf="http://www.w3.org/1999/02/22-rdf-syntax-ns#" xmlns:svg="http://www.w3.org/2000/svg" xmlns="http://www.w3.org/2000/svg" xmlns:sodipodi="http://sodipodi.sourceforge.net/DTD/sodipodi-0.dtd" xmlns:inkscape="http://www.inkscape.org/namespaces/inkscape" id="svg2985" version="1.1" inkscape:version="0.48.2 r9819" width="63.844" height="49" sodipodi:docname="protomatterLogo.svg" inkscape:export-filename="/Users/me/Projects/matterarts/protomatterLogo.png" inkscape:export-xdpi="90" inkscape:export-ydpi="90">
  <metadata id="metadata2991">
    <rdf:RDF>
      <cc:Work rdf:about="">
        <dc:format>image/svg+xml</dc:format>
        <dc:type rdf:resource="http://purl.org/dc/dcmitype/StillImage" />
        <dc:title />
      </cc:Work>
    </rdf:RDF>
  </metadata>
  <defs id="defs2989" />
  <sodipodi:namedview pagecolor="#ffffff" bordercolor="#666666" borderopacity="1" objecttolerance="10" gridtolerance="10" guidetolerance="10" inkscape:pageopacity="0" inkscape:pageshadow="2" inkscape:window-width="1436" inkscape:window-height="856" id="namedview2987" showgrid="true" inkscape:snap-page="true" inkscape:snap-bbox="true" showguides="true" inkscape:guide-bbox="true" inkscape:snap-grids="true" inkscape:snap-center="true" inkscape:snap-object-midpoints="true" inkscape:bbox-paths="true" inkscape:bbox-nodes="true" inkscape:snap-bbox-edge-midpoints="true" inkscape:snap-bbox-midpoints="false" inkscape:snap-nodes="false" fit-margin-top="0" fit-margin-left="0" fit-margin-right="0" fit-margin-bottom="0" inkscape:zoom="13.6327" inkscape:cx="31.9219" inkscape:cy="24.4999" inkscape:window-x="0" inkscape:window-y="0" inkscape:window-maximized="1" inkscape:current-layer="svg2985">
    <inkscape:grid type="xygrid" id="grid3790" empspacing="5" visible="true" enabled="true" snapvisiblegridlinesonly="true" />
  </sodipodi:namedview>
  <text xml:space="preserve" style="font-size:12.91778399999999927px;font-style:normal;font-variant:normal;font-weight:normal;font-stretch:normal;text-align:start;line-height:125%;letter-spacing:0px;word-spacing:0px;writing-mode:lr-tb;text-anchor:start;color:#000000;fill:#ffe78c;fill-opacity:1;fill-rule:evenodd;stroke:#000000;stroke-width:0.99999600000000000px;stroke-linecap:butt;stroke-linejoin:miter;stroke-miterlimit:4;stroke-opacity:1;stroke-dasharray:none;stroke-dashoffset:0;marker:none;visibility:visible;display:inline;overflow:visible;enable-background:accumulate;font-family:Helvetica;-inkscape-font-specification:Helvetica" x="51.375217" y="26.324802" id="text3007" sodipodi:linespacing="125%" transform="scale(0.99982,1.00018)"><tspan sodipodi:role="line" id="tspan3009" x="51.375217" y="26.324802" style="stroke-width:0.99999600000000000;fill:#ffe78c;fill-opacity:1" /></text>
  <path id="path3901" style="fill:#ffe78c;fill-opacity:1;fill-rule:nonzero;stroke:none" d="m 58.0083,4.27857 c 0,1.39297 -1.1273,2.5208 -2.5199,2.5208 -1.3924,0 -2.5197,-1.12783 -2.5197,-2.5208 0,-1.39296 1.1273,-2.5208 2.5197,-2.5208 1.3926,0 2.5199,1.12784 2.5199,2.5208" inkscape:connector-curvature="0" />
  <path id="path3905" style="fill:#ffe78c;fill-opacity:1;fill-rule:nonzero;stroke:none" d="m 54.2285,8.85588 c 0,0.76983 -0.623,1.39302 -1.3925,1.39302 -0.7694,0 -1.3925,-0.62319 -1.3925,-1.39302 0,-0.76982 0.6231,-1.39294 1.3925,-1.39294 0.7695,0 1.3925,0.62312 1.3925,1.39294" inkscape:connector-curvature="0" />
  <path id="path3909" style="fill:#ffe78c;fill-opacity:1;fill-rule:nonzero;stroke:none" d="m 63.844,15.1588 c 0,2.1979 -1.7813,3.981 -3.9796,3.981 -2.1969,0 -3.9782,-1.7831 -3.9782,-3.981 0,-2.1977 1.7813,-3.981 3.9782,-3.981 2.1983,0 3.9796,1.7833 3.9796,3.981" inkscape:connector-curvature="0" />
  <path inkscape:connector-curvature="0" d="m 41.4949,10.2489 c -0.7695,0 -1.3926,-0.62308 -1.3926,-1.39291 0,-0.76982 0.6231,-1.393 1.3926,-1.393 0.7695,0 1.3924,0.62318 1.3924,1.393 0,0.76983 -0.6229,1.39291 -1.3924,1.39291 m 5.637,-8.49097 c 0.08,0 0.1534,0.0162 0.2315,0.0227 l 0,-1.78051 -6.6326,0 L 23.642,37.6987 6.63133,0 0,0 l 0,49 8.11391,0 0,-27.605 L 20.5208,49 26.8413,49 37.3632,25.5901 c -1.1596,-0.2262 -2.0355,-1.2462 -2.0355,-2.4724 0,-1.3916 1.1275,-2.5206 2.5199,-2.5206 1.391,0 2.5198,1.129 2.5198,2.5206 0,0.8736 -0.4439,1.6433 -1.1193,2.0955 l 0,23.7868 8.1153,0 0,-30.7569 c -0.6835,0.5518 -1.5406,0.8949 -2.4863,0.8949 -2.1971,0 -3.9783,-1.7818 -3.9783,-3.9797 0,-2.1977 1.7812,-3.981 3.9783,-3.981 0.9457,0 1.8028,0.3445 2.4863,0.895 l 0,-5.29597 c -0.079,0.0108 -0.1521,0.0228 -0.2315,0.0228 -1.3923,0 -2.5198,-1.12784 -2.5198,-2.52086 0,-1.3929 1.1275,-2.52074 2.5198,-2.52074" style="fill:#ffe78c;fill-opacity:1;fill-rule:nonzero;stroke:none" id="path3913" />
  <path id="path3917" style="fill:#ffe78c;fill-opacity:1;fill-rule:nonzero;stroke:none" d="m 53.63,23.1177 c 0,1.393 -1.1286,2.522 -2.5213,2.522 -1.3909,0 -2.5198,-1.129 -2.5198,-2.522 0,-1.3917 1.1289,-2.5206 2.5198,-2.5206 1.3927,0 2.5213,1.1289 2.5213,2.5206" inkscape:connector-curvature="0" />
</svg>
